<svg id="Layer_1" data-name="Layer 1" xmlns="http://www.w3.org/2000/svg" viewBox="0 0 570.21 567.69">
  <defs>
    <style>.cls-1{fill:#fd650d;}</style>
  </defs>
  <path class="cls-1"
    d="M131.78,78.83q47,0,94,0a9,9,0,0,0,6.12-2.07Q256,57.28,280.31,38A162.4,162.4,0,0,1,352.09,5.1C392.28-2.58,431.29,1,468.35,19.43,475.84,23.15,482.91,27.62,490,32c2.23,1.37,2.89,3,2.89,5.48q-.12,43.62-.05,87.24,0,49.61,0,99.21a10.52,10.52,0,0,0,2.47,7.15c13.54,16.63,27.13,33.23,40.39,50.08,18.15,23.08,28.73,49.55,33.19,78.38a180,180,0,0,1-10.36,94.75c-4.9,12.48-11.94,23.84-19.2,35.06-1.17,1.8-2.65,1.92-4.47,1.91q-21.9,0-43.81,0-72.25,0-144.52,0a8.93,8.93,0,0,0-6.11,2.06c-16.78,13.55-33.58,27.09-50.56,40.4C269,550,245.2,560.08,219.28,565.37A177.12,177.12,0,0,1,181.41,569c-36.35-.49-69.76-10.56-99.82-31.26a5.1,5.1,0,0,1-2.54-4.25c-.07-1.37-.11-2.74-.11-4.11q0-91.92,0-183.84a9.41,9.41,0,0,0-2.17-6.47q-19.54-23.87-38.83-48c-18.21-22.81-29.4-48.8-34.21-77.5-6.34-37.81-1.93-74.23,14.93-108.87,3.93-8.08,8.82-15.64,13.55-23.27,1.3-2.1,2.83-2.67,5.19-2.67Q84.6,78.88,131.78,78.83ZM104.53,458.1c-.15,1.18-.26,1.64-.26,2.09,0,20.08,0,40.17,0,60.25a4.3,4.3,0,0,0,2.55,4.13A121,121,0,0,0,124,532.71a161.76,161.76,0,0,0,80.37,9.57c24.67-3.3,47.48-11.53,67.43-26.54,15.33-11.53,30.09-23.83,45.07-35.85q45.06-36.15,90.06-72.39a25.34,25.34,0,0,0,7.81-28.07c-6.27-17.26-26.85-22.55-41.52-10.71q-20.37,16.42-40.8,32.78-32.84,26.31-65.69,52.56c-9.85,7.83-19.08,16.55-29.82,23.13-24.24,14.85-50.49,18.39-78.06,12.19C137.87,484.66,120,474.17,104.53,458.1ZM467.08,111.62l.87-.46v-4c0-18.47-.1-36.94.09-55.4,0-3.65-1.16-5.56-4.37-7.22-29.21-15.09-60.14-20.55-92.76-17-25.16,2.76-48.43,10.84-69,25.73-12.9,9.36-25.14,19.64-37.59,29.63q-49.16,39.43-98.24,79c-11.23,9-13.51,24.72-4.92,35.69,9.1,11.62,25.27,13.84,36.65,4.75q46.32-37,92.48-74.21c13.82-11.06,27.3-22.6,41.67-32.9,32.39-23.21,80.47-23,115.09-.34A110.73,110.73,0,0,1,467.08,111.62Zm-354.92-7.06a20.45,20.45,0,0,0-2.24-.37q-30.32,0-60.63,0a3.66,3.66,0,0,0-3.56,2.08,111.49,111.49,0,0,0-8.12,16.84,160.34,160.34,0,0,0-9.9,80.34A148.55,148.55,0,0,0,45.34,257c9.13,16.35,21.94,29.93,33.49,44.44,19.49,24.48,39.3,48.69,59,73,8.87,10.92,17.48,22.09,26.87,32.54,9,10.06,24.93,10.33,34.78,1.46,10.73-9.66,12-24.7,3.15-35.6q-14.64-18-29.17-36-33.55-41.62-67.07-83.27C99.22,244.63,91.65,236,87,225.28a106.62,106.62,0,0,1,9.25-102.37C100.65,116.36,106,110.6,112.16,104.56ZM459.77,465.87c21.81,0,42.76,0,63.7,0,1.71,0,2.35-1,3.09-2.2a109.56,109.56,0,0,0,8.85-18.95,160.33,160.33,0,0,0,9.31-75.26A149.61,149.61,0,0,0,524.45,309c-7.44-12.48-17.27-23.18-26.32-34.44Q463.93,232,429.5,189.64c-6.51-8-13.07-16-19.53-24.13-5.33-6.68-12.33-10.35-20.73-10.16-10.23.23-18.29,5.05-22.78,14.42-4.59,9.58-3.55,18.93,3.08,27.38,5.23,6.67,10.63,13.21,15.95,19.81q33.83,41.91,67.63,83.84c8.36,10.39,17.53,20.28,24.71,31.44,19.56,30.4,21.12,62.85,8.17,96.17C480.46,442.66,471.6,454.8,459.77,465.87ZM196.71,105l-.48-.69c-7,0-14-.13-20.95.06a57.57,57.57,0,0,0-8.48,1.29C126.56,112.88,98.51,152,104,192.56c5.5,40.36,42.26,70.69,83,67.55a81.56,81.56,0,0,0,45.74-18.32c16.06-12.86,31.9-26,48.14-38.64,4.61-3.59,7.42-6.94,5.45-13-.52-1.59-.19-3.46-.26-5.21a111,111,0,0,1,1.41-22c-1.27.91-1.87,1.3-2.43,1.75-18.79,15-37.53,30.15-56.37,45.11-8.28,6.57-16.08,13.75-25.93,18.21-19.82,9-42.4,5.15-57.23-10.14-20.83-21.47-19.26-55.1,3.68-74.42,10.77-9.07,21.89-17.73,32.85-26.59Q189.39,110.94,196.71,105ZM164.16,283.91a7.56,7.56,0,0,0,2.21,4c18.25,22.6,36.82,44.94,54.73,67.8,20.76,26.49,14.71,57.25-8.08,74.11-22.09,16.35-50.77,12.33-68.38-7.26-10.82-12-20.48-25.11-30.68-37.69-2.86-3.53-5.8-7-8.71-10.47-1.37,1.12-1,2.19-1,3.12.08,6.73-.18,13.45.61,20.18,2.4,20.4,11.44,37.44,26.88,50.65,16.54,14.15,36,20.22,57.89,18.38a75.66,75.66,0,0,0,39.07-14.51c20.21-14.79,31-34.88,32.39-59.68,1.08-19.66-5.17-37.35-17.5-52.74-14.35-17.89-28.88-35.64-43.27-53.49a4.6,4.6,0,0,0-4.58-1.76A104.87,104.87,0,0,1,164.16,283.91Zm244.43,2.23c-1.06-1.47-1.58-2.28-2.18-3-18.54-23-37.17-45.91-55.59-69-15.47-19.39-16.36-44.09-2.38-63.1,18.58-25.26,55.45-28.69,78.63-4,9.71,10.32,18,22,26.94,33,4.35,5.37,8.73,10.72,13.8,16.95.37-14.46.29-27.65-4.06-40.5a78,78,0,0,0-79.62-53.17c-22.24,1.54-40.69,10.78-54.7,27.79-18.81,22.85-23.09,48.77-13.5,76.83,4,11.77,11.57,21.37,19.39,30.84,12.3,14.89,24.36,30,36.52,45,1.11,1.37,2.16,2.51,4.33,2.2,7.28-1.06,14.57-1.79,21.94-.73C401.3,285.64,404.53,285.78,408.59,286.14ZM375.46,465.2c11.2.58,22,1.09,32.87-1.34,33-7.41,58.66-37.08,60.36-71,1.23-24.55-7.2-45.54-25.27-62.31-27.29-25.31-69.19-28-98.85-5.73-19.63,14.73-38.41,30.59-57.66,45.85-2.18,1.74-1.72,3.75-1.4,5.75.84,5.33.63,10.69.71,16.05.06,4.67-.93,9.25-1.19,14.41.93-.63,1.44-.93,1.9-1.29,14.8-11.83,29.55-23.72,44.41-35.47,10.17-8,19.73-16.9,30.64-23.92,23.66-15.23,52.49-10.52,69,10.94S443.79,410,423,426.79c-11.43,9.27-22.92,18.46-34.37,27.7C384.23,458,379.85,461.63,375.46,465.2ZM277.8,345.46a22.49,22.49,0,0,0,2.34-1.47c8.15-6.57,16.2-13.26,24.43-19.72,13.11-10.27,25.17-22,40.57-29.13,2.13-1,2-2,.64-3.68-8.85-10.78-17.63-21.63-26.44-32.45-8.18-10-16.81-19.78-22.37-31.64-1.49-3.17-2.74-3-5.11-1-9.63,7.91-19.35,15.71-29.05,23.52-11.45,9.21-22.41,19.11-35.95,25.34-2.12,1-1.54,2-.42,3.42,5.21,6.36,10.46,12.69,15.52,19.17,11.77,15.1,25.52,28.74,34.06,46.22C276.34,344.67,276.66,345.39,277.8,345.46Z"
    transform="translate(-1 -1.31)" />
</svg>