<svg id="Layer_1" data-name="Layer 1" xmlns="http://www.w3.org/2000/svg" viewBox="0 0 635.51 636.35"><defs><style>.cls-1{fill:#fc650e;}.cls-2{fill:#fefefe;}.cls-3{fill:#fc660e;}.cls-4{fill:#fc660f;}</style></defs><path class="cls-1" d="M322.85,638c-52.29-.2-98.92-10.79-142.93-32.54a31.34,31.34,0,0,0-23.47-2.16c-22.32,6.2-44.61,12.61-67.21,17.62-30.87,6.83-62.69-14.57-69.66-45.62a63.91,63.91,0,0,1,1-31.12c5.48-20.47,10.77-41,16.47-61.4A29.75,29.75,0,0,0,35,460.64a309.43,309.43,0,0,1-23.59-64.88,320,320,0,0,1-7.71-106c5.46-57.34,24.81-109.6,58.73-156,46.8-64,108.93-105.55,186.21-123.89A296,296,0,0,1,328,1.82c71.36,2.64,135.48,25.5,191.18,70.67,56,45.4,93.43,103.08,109.44,173.36,22.73,99.71,2.81,191-60.23,271.71-46,58.87-106.38,95.92-179,112.84C366.44,635.74,343.08,637.62,322.85,638Zm-3.8-44.48a272.35,272.35,0,0,0,59.78-6.37c63.33-14.49,115.86-46.76,155.77-98,47.59-61.18,66.18-130.79,55.74-207.8-6.45-47.53-24.27-90.56-54-128.14C482.49,85,412,49.1,325,46.46c-41.16-1.25-80.56,7.08-118,24.19q-72.44,33.13-116.15,99.94a269.52,269.52,0,0,0-43,122.68,275.41,275.41,0,0,0,4.58,83.06,278.44,278.44,0,0,0,22.83,65.89c8.09,16.59,9.61,33.85,4.7,51.72-5.6,20.44-11,40.94-16.45,61.41-.72,2.65-1.42,5.31-1,8.1,1.57,10.24,10.32,16.12,20.61,13.44,19.64-5.1,39.33-10.08,58.8-15.79C162.86,555,182.4,557,202,566.71,238.81,584.86,278,593.54,319.05,593.5Z" transform="translate(-2.22 -1.63)"/><path class="cls-2" d="M319.05,593.5c-41.05,0-80.24-8.64-117-26.79C182.4,557,162.86,555,141.93,561.1c-19.47,5.71-39.16,10.69-58.8,15.79-10.29,2.68-19-3.2-20.61-13.44-.43-2.79.27-5.45,1-8.1,5.47-20.47,10.85-41,16.45-61.41,4.91-17.87,3.39-35.13-4.7-51.72a278.44,278.44,0,0,1-22.83-65.89,275.41,275.41,0,0,1-4.58-83.06,269.52,269.52,0,0,1,43-122.68Q134.43,103.78,207,70.65c37.43-17.11,76.83-25.44,118-24.19C412,49.1,482.49,85,536.36,153.15c29.71,37.58,47.53,80.61,54,128.14,10.44,77-8.15,146.62-55.74,207.8-39.91,51.28-92.44,83.55-155.77,98A272.35,272.35,0,0,1,319.05,593.5ZM467.61,319.82a29.54,29.54,0,1,0-59.08.25,29.54,29.54,0,1,0,59.08-.25Zm-177.15-.15A29.5,29.5,0,1,0,320,290.26,29.5,29.5,0,0,0,290.46,319.67Zm-118.24.3a29.55,29.55,0,0,0,29.52,29.51,29.61,29.61,0,1,0-.25-59.22A29.46,29.46,0,0,0,172.22,320Z" transform="translate(-2.22 -1.63)"/><path class="cls-3" d="M467.61,319.82a29.54,29.54,0,1,1-29.43-29.56A29.56,29.56,0,0,1,467.61,319.82Z" transform="translate(-2.22 -1.63)"/><path class="cls-3" d="M290.46,319.67a29.5,29.5,0,1,1,29.19,29.82A29.4,29.4,0,0,1,290.46,319.67Z" transform="translate(-2.22 -1.63)"/><path class="cls-4" d="M172.22,320a29.55,29.55,0,1,1,59.1-.06,29.86,29.86,0,0,1-29.58,29.57A29.55,29.55,0,0,1,172.22,320Z" transform="translate(-2.22 -1.63)"/></svg>