<svg id="Layer_1" data-name="Layer 1" xmlns="http://www.w3.org/2000/svg" viewBox="0 0 1497.7 1198.61"><defs><style>.cls-1{fill:#fff;}</style></defs><path d="M1.55,1200a42.82,42.82,0,0,1,2-4q372-595.21,744-1190.39c.84-1.34,1.74-2.64,2.81-4.27,1,1.56,1.91,2.75,2.68,4q372.24,595.5,744.44,1191a37.23,37.23,0,0,1,1.75,3.59ZM825.29,818.42V368.82H675.58v449.6ZM675.5,1043.15H825.27V893.38H675.5Z" transform="translate(-1.55 -1.39)"/><path class="cls-1" d="M825.29,818.42H675.58V368.82H825.29Z" transform="translate(-1.55 -1.39)"/><path class="cls-1" d="M675.5,1043.15V893.38H825.27v149.77Z" transform="translate(-1.55 -1.39)"/></svg>