<svg id="Layer_1" data-name="Layer 1" xmlns="http://www.w3.org/2000/svg" viewBox="0 0 1183.33 1183.64"><defs><style>.cls-1{fill:#fff;}</style></defs><path d="M0,588.66C2.52,255.92,277.42-4.63,598.87.06c321.93,4.7,588.44,266.59,584.42,599.74-4,328.19-272.73,586.87-597.74,583.82C265.5,1180.61-1,919.8,0,588.66ZM238.77,384.52c4,3.69,7.06,6.27,9.87,9.07q37.88,37.85,75.69,75.77,71.93,72.12,143.84,144.25Q569.3,714.77,670.58,815.79q27.54,27.53,54.93,55.22c5.21,5.23,6.13,5.14,11.26-.27,6.18-6.52,12.39-13,18.73-19.38,5.19-5.22,5.35-7.09.25-12.15q-25.26-25-50.56-50-30.88-30.52-61.78-61c-3.4-3.35-5.28-7.08-4.75-12a98.85,98.85,0,0,0,.24-10.48q.12-159.54.18-319.08a66,66,0,0,0-.74-11.94c-2.11-11.36-9-18.53-20-21.93-8.61-2.66-16.21.18-23.66,4.05q-70.75,36.79-141.5,73.57c-21.48,11.16-43,22.18-64.44,33.5-4,2.13-7,1.75-10-1.27s-6.22-5.77-9.21-8.77q-47.62-47.68-95.22-95.4c-1.67-1.68-3.6-3.11-5.45-4.7ZM278,487.4c-.5,5.24-1.11,8.84-1.13,12.45q-.22,45.31-.25,90.65c0,38-.24,75.92-.06,113.88.1,20.1,11.24,30.73,31.39,30.71,17.73,0,35.47.25,53.18-.42a38.2,38.2,0,0,1,19.95,4.74c23.21,12.17,46.5,24.18,69.76,36.26q63.78,33.15,127.58,66.26c8.63,4.47,17.47,8.58,26.39,12.44,2.83,1.22,6.67,2.26,9.31,1.32,6-2.14,11.71-5.4,17.35-8.52,3-1.69,2.78-4.52.95-7.09a32.12,32.12,0,0,0-3.56-3.83q-19-19.11-38-38.22Q514,721.29,437.11,644.57q-75.5-75.47-150.94-151C284.17,491.6,281.62,490.14,278,487.4ZM866.74,838.6c13.39,0,26.06,0,38.73,0,4,0,4.82-2.76,4.79-6.14q-.12-11.23-.11-22.47,0-210.78.07-421.57c0-4.49,0-9-.25-13.47-.35-6.27-.9-6.81-7.09-6.83q-14.6,0-29.2.15c-7.75.1-7.89.34-7.9,8.07q0,128.43,0,256.84,0,97.33.2,194.68C865.94,831.23,866.43,834.62,866.74,838.6Zm-77.93-77.09c.43.24.86.7,1.28.7,12.47,0,24.94,0,37.4-.09,3.55,0,4.6-2.32,4.53-5.51-.15-6.74-.32-13.48-.32-20.22q0-127.71.09-255.42c0-9.74.22-19.47.17-29.21,0-6.62-.63-7-7.46-6.93-9.24.13-18.47.18-27.71.26-2.67,0-5.35,0-7.72,0C786.66,452.92,786.69,754.1,788.81,761.51Zm-36.09-75.9a42.26,42.26,0,0,0,.79-5.4c0-8-.09-16-.08-24q0-62.91.13-125.84c0-8.84-.42-9.22-9.35-9.21-8,0-16,.11-24-.05-10.66-.22-10.78-.31-10.79,10.53q-.08,73,0,146.06c0,2.43.24,4.86.4,7.88Z"/><path class="cls-1" d="M238.77,384.52l30-30.84c1.85,1.59,3.78,3,5.45,4.7q47.63,47.67,95.22,95.4c3,3,6.2,5.79,9.21,8.77s6,3.4,10,1.27c21.4-11.32,43-22.34,64.44-33.5q70.76-36.76,141.5-73.57c7.45-3.87,15.05-6.71,23.66-4.05,11,3.4,17.92,10.57,20,21.93a66,66,0,0,1,.74,11.94q0,159.54-.18,319.08a98.85,98.85,0,0,1-.24,10.48c-.53,4.93,1.35,8.66,4.75,12q30.92,30.48,61.78,61,25.29,25,50.56,50c5.1,5.06,4.94,6.93-.25,12.15-6.34,6.37-12.55,12.86-18.73,19.38-5.13,5.41-6,5.5-11.26.27Q698,843.4,670.58,815.79,569.39,714.68,468.17,613.61q-72-72-143.84-144.25-37.81-37.92-75.69-75.77C245.83,390.79,242.79,388.21,238.77,384.52Z"/><path class="cls-1" d="M278,487.4c3.65,2.74,6.2,4.2,8.2,6.2q75.51,75.43,150.94,151Q513.91,721.34,590.79,798q19.08,19.07,38,38.22a32.12,32.12,0,0,1,3.56,3.83c1.83,2.57,2.1,5.4-.95,7.09-5.64,3.12-11.31,6.38-17.35,8.52-2.64.94-6.48-.1-9.31-1.32-8.92-3.86-17.76-8-26.39-12.44q-63.85-33-127.58-66.26c-23.26-12.08-46.55-24.09-69.76-36.26a38.2,38.2,0,0,0-19.95-4.74c-17.71.67-35.45.4-53.18.42-20.15,0-31.29-10.61-31.39-30.71-.18-38,0-75.92.06-113.88q.07-45.33.25-90.65C276.86,496.24,277.47,492.64,278,487.4Z"/><path class="cls-1" d="M866.74,838.6c-.31-4-.8-7.37-.8-10.77q-.16-97.33-.2-194.68,0-128.42,0-256.84c0-7.73.15-8,7.9-8.07q14.6-.18,29.2-.15c6.19,0,6.74.56,7.09,6.83.24,4.48.25,9,.25,13.47q0,210.78-.07,421.57,0,11.24.11,22.47c0,3.38-.82,6.11-4.79,6.14C892.8,838.65,880.13,838.6,866.74,838.6Z"/><path class="cls-1" d="M788.81,761.5c-2.12-7.4-2.15-308.58.26-316.41,2.37,0,5,0,7.72,0,9.24-.08,18.47-.13,27.71-.26,6.83-.09,7.43.31,7.46,6.93,0,9.74-.17,19.47-.17,29.21q-.07,127.71-.09,255.42c0,6.74.17,13.48.32,20.22.07,3.19-1,5.48-4.53,5.51-12.46.09-24.93.09-37.4.09C789.67,762.21,789.24,761.75,788.81,761.5Z"/><path class="cls-1" d="M752.72,685.61H709.86c-.16-3-.4-5.45-.4-7.88q0-73,0-146.06c0-10.84.13-10.75,10.79-10.53,8,.16,16,.06,24,.05,8.93,0,9.36.37,9.35,9.21q-.06,62.93-.13,125.84c0,8,.11,16,.08,24A42.26,42.26,0,0,1,752.72,685.61Z"/></svg>