<?xml version="1.0" encoding="utf-8"?>
<!-- Svg Vector Icons : http://www.onlinewebfonts.com/icon -->
<!DOCTYPE svg PUBLIC "-//W3C//DTD SVG 1.1//EN" "http://www.w3.org/Graphics/SVG/1.1/DTD/svg11.dtd">
<svg width="20" height="20" version="1.1" xmlns="http://www.w3.org/2000/svg"
  xmlns:xlink="http://www.w3.org/1999/xlink"
  x="0px" y="0px" viewBox="0 0 256 256" enable-background="new 0 0 256 256" xml:space="preserve">
<metadata> Svg Vector Icons : http://www.onlinewebfonts.com/icon </metadata>
<g><g><path fill="#FD650D" d="M212.2,154.9v-61l0,0C212,47.5,174.4,10,128,10c-46.4,0-84.1,37.5-84.3,83.9v61L20,178.6v8.4c0,4.7,3.8,8.4,8.4,8.4h199.1c4.7,0,8.4-3.8,8.4-8.4v-8.4L212.2,154.9z M43.8,178.6L60.4,162l0.1-68c0.2-37.1,30.3-67.1,67.4-67.1c37.1,0,67.2,30,67.4,67.1l0,0l0.1,68l16.6,16.6H43.8z"/><path fill="#FD650D" d="M157.1,212.3C157.1,212.3,157.1,212.3,157.1,212.3c-5.9,10.1-16.7,16.9-29.2,16.9c-12.5,0-23.4-6.8-29.2-16.8c0,0,0,0,0,0H80.2v0c7,19.6,25.7,33.7,47.7,33.7c22,0,40.7-14.1,47.7-33.7v0H157.1z"/></g></g>
</svg>