<svg id="Layer_1" data-name="Layer 1" xmlns="http://www.w3.org/2000/svg" viewBox="0 0 734.23 735"><defs><style>.cls-1{fill:#fff;}</style></defs><path d="M348.47,0h33a30.84,30.84,0,0,0,3.65.6,367.08,367.08,0,0,1,88.54,15.76C608.12,57.29,710,177.28,728.5,316.11c6,45.09,4.64,89.8-5.83,134q-31.6,133.49-142.24,214.79c-52.51,38.57-111.5,61-176.3,67.92-7.8.83-15.63,1.44-23.45,2.16H348.47c-5-.47-9.9-1-14.85-1.39A354.42,354.42,0,0,1,221.91,706Q110,657.84,47.91,552.76A357.77,357.77,0,0,1,0,407c-.81-7.67-1.45-15.35-2.18-23V351a38.88,38.88,0,0,0,.62-4A345.87,345.87,0,0,1,14,259.5q45.33-142.41,176-215C232.19,21,277.69,7.17,325.79,2.14,333.34,1.35,340.91.71,348.47,0ZM245.32,367.35q0,101.77,0,203.57c0,4.33.62,8.43,4.86,10.59s8,1.2,11.92-1.34Q399.87,492,537.74,404q21.45-13.71,42.89-27.43c7.83-5,7.8-12.93,0-18l-1.88-1.23-292-186.71c-8.62-5.52-17.2-11.09-25.88-16.5-7.31-4.55-15-.41-15.46,8.17-.06,1.25,0,2.5,0,3.75Z" transform="translate(2.18 0)"/><path class="cls-1" d="M245.32,367.35V166c0-1.25,0-2.5,0-3.75.45-8.58,8.15-12.72,15.46-8.17,8.68,5.41,17.26,11,25.88,16.5l292,186.71,1.88,1.23c7.83,5.08,7.86,13,0,18Q559.21,390.28,537.74,404,399.91,492,262.09,580.17c-4,2.54-7.8,3.44-11.92,1.34s-4.87-6.26-4.86-10.59Q245.34,469.13,245.32,367.35Z" transform="translate(2.18 0)"/></svg>