<svg id="Layer_1" data-name="Layer 1" xmlns="http://www.w3.org/2000/svg" viewBox="0 0 1652.79 1654.92"><defs><style>.cls-1{fill:#fff;}</style></defs><path d="M0,823.22C2.39,358.2,387-9,838.69-.92c457.37,8.21,821.76,382.94,814,841.43-7.88,463-388,816-830.76,813.35C366.14,1651.12-2.23,1278.36,0,823.22Zm890.22,6.18h.19V554.48q0-20.49,0-41c0-25.34-27.27-48.92-56.26-34.17q-21.37,10.86-42.66,21.89-76.38,39.39-152.74,78.85c-35.79,18.53-71.57,37.08-107.15,56-9.18,4.87-18.63,6.76-28.79,6.79-27,.06-54,.37-81,.43-8,0-14.78,2.6-21.26,7.3-11.51,8.36-16.32,19.35-16.29,33.42q.33,141.46.28,282.92a120.29,120.29,0,0,0,1,14.93c.32,2.56.91,5.55,2.48,7.41,10.05,11.89,20.75,22.38,38.26,21.92,26.31-.69,52.65-.27,79-1.06a44.13,44.13,0,0,1,22,4.92c13.06,6.66,26.15,13.25,39.13,20q111.16,58.08,222.31,116.17c16.24,8.46,32.64,16.67,49.34,24.16a38.92,38.92,0,0,0,18.35,3.16C875,1177,891.88,1157.85,890,1141.3c-.59-5.25.18-10.65.18-16Q890.23,977.36,890.22,829.4ZM1269,827h-.18q0-80.47,0-160.94,0-78.47.17-156.94c0-10.93-.63-11.44-11.17-11.41q-20,.07-40,.12c-10.35,0-11,.66-11,10.48q.11,261.41.21,522.8,0,57,.32,113.95c0,10.22,1,10.84,10.89,10.8q19.48-.06,39,.07c10.83.06,11.72-.82,11.72-12Q1269,985.46,1269,827ZM1098.16,604.77c0,4.58,0,7.84,0,11.09q-.17,196.35-.33,392.69c0,10,0,20,.33,30,.27,9.23.9,10,9.54,10.17,14.65.22,29.31.13,44-.13,7-.13,8-1.36,8.07-8.4,0-9.32-.39-18.65-.39-28q0-166.37,0-332.74c0-21.65.27-43.3.26-64.94,0-9-.72-9.64-9.72-9.74-12-.13-24,0-36,0Zm-109.47,107v14.62q0,98.88.11,197.76c0,3.67.18,7.33.18,11,0,4.52,2.29,6.7,6.72,6.83,1,0,2,.17,3,.16,14.31-.12,28.63-.1,42.94-.44,7.81-.18,8.46-1.06,8.71-8.78.12-3.66.06-7.32.07-11q0-58.44.09-116.86,0-38,.1-75.91c0-17.81,0-17.72-17.29-17.42-10.64.18-21.3,0-31.95,0Z" transform="translate(0.01 1.05)"/><path class="cls-1" d="M890.22,829.4q0,148,0,295.92c0,5.33-.77,10.73-.18,16,1.85,16.55-15.07,35.73-33.58,37.26a38.92,38.92,0,0,1-18.35-3.16c-16.7-7.49-33.1-15.7-49.34-24.16q-111.22-57.95-222.31-116.17c-13-6.78-26.07-13.37-39.13-20a44.13,44.13,0,0,0-22-4.92c-26.3.79-52.64.37-79,1.06-17.51.46-28.21-10-38.26-21.92-1.57-1.86-2.16-4.85-2.48-7.41a120.29,120.29,0,0,1-1-14.93q-.17-141.46-.28-282.92c0-14.07,4.78-25.06,16.29-33.42,6.48-4.7,13.25-7.28,21.26-7.3,27-.06,54-.37,81-.43,10.16,0,19.61-1.92,28.79-6.79,35.58-18.91,71.36-37.46,107.15-56q76.31-39.54,152.74-78.85,21.3-11,42.66-21.89c29-14.75,56.28,8.83,56.26,34.17q0,20.49,0,41V829.4Z" transform="translate(0.01 1.05)"/><path class="cls-1" d="M1269,827q0,158.44,0,316.88c0,11.23-.89,12.11-11.72,12q-19.49-.12-39-.07c-9.86,0-10.84-.58-10.89-10.8q-.33-57-.32-113.95-.13-261.41-.21-522.8c0-9.82.61-10.44,11-10.48q20-.08,40-.12c10.54,0,11.17.48,11.17,11.41q0,78.47-.17,156.94,0,80.48,0,160.94Z" transform="translate(0.01 1.05)"/><path class="cls-1" d="M1098.16,604.77h15.74c12,0,24-.13,36,0,9,.1,9.72.77,9.72,9.74,0,21.64-.25,43.29-.26,64.94q0,166.38,0,332.74c0,9.32.44,18.65.39,28,0,7-1.1,8.27-8.07,8.4-14.65.26-29.31.35-44,.13-8.64-.12-9.27-.94-9.54-10.17-.29-10-.34-20-.33-30q.14-196.34.33-392.69C1098.17,612.61,1098.16,609.35,1098.16,604.77Z" transform="translate(0.01 1.05)"/><path class="cls-1" d="M988.69,711.77h12.67c10.65,0,21.31.15,31.95,0,17.32-.3,17.32-.39,17.29,17.42q-.06,38-.1,75.91-.06,58.42-.09,116.86c0,3.66,0,7.32-.07,11-.25,7.72-.9,8.6-8.71,8.78-14.31.34-28.63.32-42.94.44-1,0-2-.13-3-.16-4.43-.13-6.72-2.31-6.72-6.83,0-3.66-.18-7.32-.18-11q-.06-98.88-.11-197.76Z" transform="translate(0.01 1.05)"/></svg>