<svg id="Layer_1" data-name="Layer 1" xmlns="http://www.w3.org/2000/svg" viewBox="0 0 474 474"><defs><style>.cls-1{fill:#fff;}</style></defs><path d="M263,474H210c-.95-.65-1.82-1.66-2.85-1.87-3.1-.62-6.26-.84-9.38-1.36C95.78,453.87,15.46,370.4,1.92,267.35,1.77,266.17.66,265.11,0,264V210c.66-1.12,1.76-2.18,1.92-3.37,5-38,18.18-72.89,40.33-104.08C82.66,45.63,137.45,11.84,206.76,1.92,208.23,1.71,209.59.66,211,0h52c1.24.65,2.43,1.71,3.73,1.88C302.66,6.47,336,18.4,366,38.59,426.1,78.94,461.65,135,472.08,206.76c.22,1.47,1.26,2.83,1.92,4.24v52a19.73,19.73,0,0,0-1.92,4.23c-1.1,5.71-1.81,11.5-3,17.2-20,98.65-102.44,175.19-201.87,187.65C265.77,472.27,264.41,473.34,263,474Zm45.7-138.11c1.33.72,2.63,1.4,3.9,2.12,13.27,7.64,26.43,15.5,39.85,22.87,14.31,7.86,31.3-1.47,31.4-17.5q.39-67.24,0-134.49c-.08-15.86-17.89-25.41-31.63-17.47-3.31,1.92-6.58,3.91-9.89,5.83l-33.58,19.34c-2-3-3.36-5.67-5.35-7.86-2.35-2.59-2.21-4.61-.85-7.84,10.19-24.18,7.76-47.25-9.05-67.47-16.37-19.68-38-26.7-63.23-21.65-11,2.2-20.43,7.66-28.89,14.7-30.74-24.67-63.24-17.89-82.29-3-26.26,20.48-31.74,54.27-17.38,81.95-9.45,9.81-12,21.91-11.78,35.27.36,25.66.07,51.33.12,77a41.79,41.79,0,0,0,42.17,42.24q69,.14,138,0c13.68,0,24.83-5.59,33.34-16.3C305.42,341.26,306.88,338.64,308.7,335.89Z" transform="translate(0 0)"/><path class="cls-1" d="M308.7,335.89c-1.82,2.75-3.28,5.37-5.13,7.7-8.51,10.71-19.66,16.28-33.34,16.3q-69,.12-138,0a41.79,41.79,0,0,1-42.17-42.24c0-25.67.24-51.34-.12-77-.19-13.36,2.33-25.46,11.78-35.27-14.36-27.68-8.88-61.47,17.38-81.95,19.05-14.86,51.55-21.64,82.29,3,8.46-7,17.89-12.5,28.89-14.7,25.26-5,46.86,2,63.23,21.65,16.81,20.22,19.24,43.29,9.05,67.47-1.36,3.23-1.5,5.25.85,7.84,2,2.19,3.39,4.91,5.35,7.86l33.58-19.34c3.31-1.92,6.58-3.91,9.89-5.83,13.74-7.94,31.55,1.61,31.63,17.47q.38,67.25,0,134.49c-.1,16-17.09,25.36-31.4,17.5C339,353.51,325.87,345.65,312.6,338,311.33,337.29,310,336.61,308.7,335.89ZM290.79,205.71c14.09-31.27,11-55.29-10.16-73.56a54,54,0,0,0-31.19-13.23c-19.28-1.71-35,5.78-48.18,19.36l-3.38-3c-1.11-1-2.18-2.06-3.33-3-13.44-11.25-28.91-15.82-46.1-12.65-38.24,7-57.35,47.73-38.67,82,2.08,3.81,2.07,6.18-1.28,9.25A29.49,29.49,0,0,0,98.67,233c-.13,28.82-.36,57.65.07,86.46a32.22,32.22,0,0,0,32.17,31.76q70.22.42,140.44,0c12.64-.06,22.18-6.32,28.39-17.37,1.78-3.16,3.23-6.5,5-10.13,1.78,1,3.36,1.84,4.91,2.74,14.86,8.55,30.06,16.57,44.44,25.86,9.34,6.05,21.69,1.71,21.52-12.53-.5-42.47-.17-85-.19-127.44,0-13.77-9.33-19.11-21.36-12.19-14.72,8.46-29.38,17-44.07,25.51-1.68,1-3.43,1.79-4.53,2.35C300.45,220.43,295.74,213.26,290.79,205.71Z" transform="translate(0 0)"/><path d="M290.79,205.71c4.95,7.55,9.66,14.72,14.69,22.37,1.1-.56,2.85-1.38,4.53-2.35,14.69-8.49,29.35-17,44.07-25.51,12-6.92,21.36-1.58,21.36,12.19,0,42.48-.31,85,.19,127.44.17,14.24-12.18,18.58-21.52,12.53-14.38-9.29-29.58-17.31-44.44-25.86-1.55-.9-3.13-1.75-4.91-2.74-1.79,3.63-3.24,7-5,10.13-6.21,11-15.75,17.31-28.39,17.37q-70.23.33-140.44,0a32.22,32.22,0,0,1-32.17-31.76c-.43-28.81-.2-57.64-.07-86.46a29.49,29.49,0,0,1,9.83-22.19c3.35-3.07,3.36-5.44,1.28-9.25-18.68-34.29.43-75,38.67-82,17.19-3.17,32.66,1.4,46.1,12.65,1.15,1,2.22,2,3.33,3l3.38,3c13.2-13.58,28.9-21.07,48.18-19.36a54,54,0,0,1,31.19,13.23C301.75,150.42,304.88,174.44,290.79,205.71Zm-14.79,4c25-25,16.72-58.77-3.95-73.68-21.11-15.24-54.66-12-70.87,18.42-7.12-13.55-17.67-22.74-32.47-26.15s-28.47-.1-40.4,9.37c-19.07,15.14-26.27,47.48-2.09,71.9-16.09,7.82-19.25,13-19.24,31.12,0,25.67-.06,51.33,0,77,0,14.21,10.78,25.19,24.9,25.22q69.24.17,138.49,0c14,0,24.52-10.61,24.93-24.66.09-2.93,0-5.87,0-9.66,2.43,1.34,4,2.15,5.51,3q28.77,16.62,57.53,33.24c6.22,3.59,8.6,2.25,8.6-4.77q0-63.74,0-127.49c0-7.26-2.48-8.64-8.85-5L301,240.6c-1.63.93-3.32,1.74-5.91,3.1C296.91,227,292.09,215,276,209.73Z" transform="translate(0 0)"/><path class="cls-1" d="M276,209.73c16.09,5.28,20.91,17.29,19.12,34,2.59-1.36,4.28-2.17,5.91-3.1l57.12-32.93c6.37-3.68,8.85-2.3,8.85,5q0,63.75,0,127.49c0,7-2.38,8.36-8.6,4.77q-28.78-16.58-57.53-33.24c-1.52-.88-3.08-1.69-5.51-3,0,3.79.08,6.73,0,9.66-.41,14.05-10.91,24.63-24.93,24.66q-69.24.15-138.49,0c-14.12,0-24.85-11-24.9-25.22-.1-25.67,0-51.33,0-77,0-18.16,3.15-23.3,19.24-31.12-24.18-24.42-17-56.76,2.09-71.9,11.93-9.47,25.53-12.78,40.4-9.37s25.35,12.6,32.47,26.15c16.21-30.4,49.76-33.66,70.87-18.42C292.72,151,301,184.77,276,209.73ZM200.77,233c-18,0-36,0-54,0-7.52,0-11.54,3.87-11.57,11.3q-.15,31.23,0,62.46c0,7.56,3.9,11.41,11.42,11.42q53.72.08,107.43,0c7.78,0,11.59-4,11.59-11.75q0-30.48,0-61c0-8.8-3.69-12.47-12.43-12.49Q227,232.92,200.77,233Zm10.79-23.87-10.35-14.41-10.32,14.41Z" transform="translate(0 0)"/><path d="M200.77,233q26.23,0,52.47,0c8.74,0,12.41,3.69,12.43,12.49q0,30.48,0,61c0,7.78-3.81,11.74-11.59,11.75q-53.71.07-107.43,0c-7.52,0-11.39-3.86-11.42-11.42q-.1-31.23,0-62.46c0-7.43,4-11.28,11.57-11.3C164.79,232.91,182.78,233,200.77,233Zm-.6,79.16q26.22,0,52.44,0c6.13,0,6.88-.75,6.89-6.88q0-29.73,0-59.44c0-5.71-1-6.76-6.63-6.76q-52.44,0-104.89,0c-5.61,0-6.75,1.14-6.75,6.66q0,29.71,0,59.44c0,5.91,1.05,7,6.93,7Q174.2,312.13,200.17,312.11Z" transform="translate(0 0)"/><path d="M211.56,209.08H190.89l10.32-14.41Z" transform="translate(0 0)"/><path class="cls-1" d="M200.17,312.11q-26,0-51.95,0c-5.88,0-6.92-1.05-6.93-7q0-29.72,0-59.44c0-5.52,1.14-6.66,6.75-6.66q52.44,0,104.89,0c5.61,0,6.62,1,6.63,6.76q0,29.71,0,59.44c0,6.13-.76,6.88-6.89,6.88Q226.39,312.13,200.17,312.11Z" transform="translate(0 0)"/></svg>