<svg id="Layer_1" data-name="Layer 1" xmlns="http://www.w3.org/2000/svg" viewBox="0 0 958.99 180.93">
  <defs>
    <style>.cls-1{fill:#fff;}.cls-2{fill:#FD650D;}</style>
  </defs>
  <path class="cls-1"
    d="M509.84,115.77c-3.65,6.72-9.54,9.4-16.33,10.37a88.25,88.25,0,0,1-27.29,0c-6.41-1-11.56-4-14.62-10.37C445.49,126,435.5,126.51,425.43,127c-2.09.15-4.25,0-6.27,0a91.51,91.51,0,0,1-1.11,9.62c-2,8.73-7.61,14.69-15.29,18.95a67,67,0,0,1-24.68,7.53c-11.34,1.34-22.68,1.79-33.94-.75-17.3-3.88-26.54-16-25-33.56.75-8,2.84-16,4.4-24.08,1-5.07,2-10.22,3.21-15.22a2.94,2.94,0,0,1,2.09-1.86c3.95-.45,8-.45,11.93-.9,1.94-.22,2.68.6,2.53,2.24-.59,5.15-1.11,10.29-1.93,15.44-1,6.34-2.39,12.6-3.21,18.94-.9,7.38,2.83,12.9,9.92,15.21a35.19,35.19,0,0,0,8.72,1.72c11.11.74,22.15.59,33-1.79a24.9,24.9,0,0,0,3.95-1.27c5.82-2.31,6.94-4.25,6.19-10.89-11.86-1.64-24.31-.44-35.65-6.56,2.39-6.71,4.63-13.2,6.72-19,6.86.75,13.42,1.94,20.06,2.17,13.05.44,26,.3,39.07.37a21.29,21.29,0,0,0,3.06-.37c6.78-1.35,9.69-4.4,10.07-11.34.29-5,.15-10.07.22-15.06V73.34c6-1,11.86-2,18.12-3.06v3.81c.22,6.56,0,13.2.75,19.76.67,6.11,4.32,9.32,10.51,9.54a126.37,126.37,0,0,0,19.17-.59c6-.67,8.65-3.88,9.32-10,.37-3.21.37-6.49.45-9.77s0-6.34,0-9.7c6-1,11.78-2,18-3.06,0,5.3-.15,10.37.07,15.52A59.83,59.83,0,0,0,521,95.42a9.1,9.1,0,0,0,7.76,7.53,93.71,93.71,0,0,0,29.15-.67c-.67-5.37-1.56-10.52-2-15.66-.45-5.75-.67-11.49-.75-17.23a3,3,0,0,1,1.57-2.31c5.67-1.12,11.34-1.94,17.45-3,0,1.27-.07,2.24,0,3.21.6,11.86,1,23.79,1.94,35.65.82,10.51-3.58,18-13.65,21.25a50.29,50.29,0,0,1-11.41,2.39c-6.86.44-13.79.67-20.65.44C522.15,126.59,514.24,124.57,509.84,115.77Z"
    transform="translate(-12.2 -5.93)" />
  <path class="cls-1"
    d="M187.32,103.47c-5.15-18.87,4.1-41.24,24.68-46-.3-2.61-.52-5.3-.82-7.91-.15-1.41.15-2.31,1.64-2.68,5.3-1.27,10.59-2.61,16.26-4,.3,2.09.67,4,.89,6a15.35,15.35,0,0,0,8.95,12.53C247.87,66,256.6,71,265.4,75.8a48.62,48.62,0,0,1,5.66,4c4.93,3.8,7.46,8.87,7.09,15a89.63,89.63,0,0,1-1.79,15.44c-2.91,11.78-11.26,18.19-23.42,18.49-11.48.3-22.59-2-33.63-4.85a24.12,24.12,0,0,0-13.42.08,94.54,94.54,0,0,1-36.54,2.46c-13-1.49-20-8.43-21.26-22.23-1.19-12.15-1.26-24.45-1.41-36.76-.23-10.07,0-20.36.52-30.57.22-5.08,1.42-10.07,2.31-15.07.15-.67,1.19-1.71,1.64-1.64,5.74,1,11.48,2.09,17.23,3.13-3.06,21.26-2.84,42.36-2.69,63.46a47.28,47.28,0,0,0,1.42,10.15c.82,3.8,3.73,5.59,7.38,6.26a14,14,0,0,0,3.06.3ZM226,85.94A36.59,36.59,0,0,0,225,81c-2-6.41-8-8.65-13.72-5.07-5.37,3.28-8.51,11.11-7.16,17.53a11.09,11.09,0,0,0,5.14,7.3,4.9,4.9,0,0,0,2.84.75A16,16,0,0,0,226,85.94Zm16.4-1.56c.15,8.2-1.64,14.84-6.34,21.62,6.34.45,11.94,1,17.6,1.2,2.69.15,5-1,5.89-3.73,1-3.06,1.79-6.56-1.19-8.73C253.32,91.16,248,88,242.35,84.38Z"
    transform="translate(-12.2 -5.93)" />
  <path class="cls-1"
    d="M599.11,164.77l-7.24-22.15c7.31-1.64,14.47-3,21.56-4.92a110.94,110.94,0,0,0,14.39-5.22,14.29,14.29,0,0,0,7.9-8.21c-4.69.53-9.24,1.12-13.79,1.35a52.68,52.68,0,0,1-10.29-.45c-12.08-2.09-17.9-9.25-16.86-21.48.6-7.31,2.09-14.46,3.28-21.7A71,71,0,0,1,599.93,73a11.26,11.26,0,0,1,3-5.07c11.41-9.84,34-7.75,43.25,4,4.93,6.19,6.57,13.65,7.39,21.33.37,3.43.52,6.86.82,10.74,10.36-.75,20.88.44,31.39-1.79-1-11.86-4-23.2-2.38-35,6.18-1,12.3-1.94,18.56-3a8.63,8.63,0,0,1,.3,1.5c.6,12.82,1.12,25.65,1.87,38.4.52,9.84-3.81,16.63-13.13,20-7.31,2.61-14.91,3-22.59,3.13-4.93.15-9.85.07-14.84,0a2.25,2.25,0,0,0-2.54,1.86c-4.18,13.5-13.27,22.52-26,28.12A125.37,125.37,0,0,1,599.11,164.77Zm38.33-61.52c-1.05-4.93-1.72-9.7-3.21-14.25-1.49-4.7-5.29-7.08-10.21-7.38a41.54,41.54,0,0,0-7.46.52,2.64,2.64,0,0,0-1.94,1.57A117.77,117.77,0,0,0,612.38,96c-.45,4.18,1.57,6.94,5.67,7.09C624.24,103.47,630.35,103.25,637.44,103.25Z"
    transform="translate(-12.2 -5.93)" />
  <path class="cls-1"
    d="M32.43,64.77a99.31,99.31,0,0,1-.07,10.51c-.45,4.55-1.57,9-2.17,13.5-1,6.78,1.57,11.33,8.13,13.35a55.2,55.2,0,0,0,13.35,2.46c15.74.89,31.47.82,47.06-1.94a46,46,0,0,0,9.77-3.21c2.53-1,3.2-3.13,2.75-6-1.64-10.44-3.43-20.88-2.61-31.55.08-.59.15-1.27.23-2,6.26-1,12.38-2,18.64-3a12.8,12.8,0,0,1,.22,1.64c.6,12.15,1,24.31,1.87,36.46.74,11.86-4.1,20.51-14.92,25.58-8.27,3.88-17.15,5.59-26.17,6.49-14.47,1.49-29,2.09-43.48.6a75.72,75.72,0,0,1-17.3-3.88C17.07,120,11.85,112.42,12.22,101.16,12.45,94.07,14,87,15,80c.6-3.8,1.27-7.53,1.72-11.34.15-1.41.52-2.16,2.16-2.31C23.18,66,27.51,65.36,32.43,64.77Z"
    transform="translate(-12.2 -5.93)" />
  <path class="cls-1"
    d="M469.05,44.86V59.32c0,2.09-1.41,1.79-2.68,1.79-8.2,0-16.41-.07-24.61.08-4.92.07-9.77.59-15.14,1-.67-4-1.56-8.73-2.24-13.5-.07-.52.75-1.49,1.42-1.79,1.94-.82,4-1.94,6-1.94C444.07,44.78,456.38,44.86,469.05,44.86Z"
    transform="translate(-12.2 -5.93)" />
  <path class="cls-1"
    d="M516,144.19v14.69c0,1.94-1.41,1.64-2.53,1.64-8.73,0-17.45-.08-26.25.07-4.4.08-8.8.67-13.65,1-.67-3.88-1.56-8.36-2.16-12.91A3.06,3.06,0,0,1,473,146.2a22.4,22.4,0,0,1,7.45-2.09c11.41-.3,22.9-.22,34.31-.22A5.78,5.78,0,0,1,516,144.19Z"
    transform="translate(-12.2 -5.93)" />
  <path class="cls-1"
    d="M659.74,161.71c-.68-3.8-1.57-8.13-2.09-12.53a3.34,3.34,0,0,1,1.64-3,24.16,24.16,0,0,1,7.68-2.09c11.33-.22,22.67-.22,34-.22a8.63,8.63,0,0,1,1.2.3c0,4.92.07,9.91-.15,14.84,0,.52-1.64,1.41-2.54,1.41-8.8.08-17.67-.07-26.47.15C668.68,160.67,664.36,161.34,659.74,161.71Z"
    transform="translate(-12.2 -5.93)" />
  <path class="cls-1" d="M570.77,52.91H550.11V34.12h20.66Z" transform="translate(-12.2 -5.93)" />
  <path class="cls-1" d="M57.19,161.86V143.07H77.85v18.79Z" transform="translate(-12.2 -5.93)" />
  <path class="cls-2"
    d="M831.16,30.64h30a2.89,2.89,0,0,0,2-.66q7.68-6.21,15.43-12.35A51.65,51.65,0,0,1,901.37,7.14c12.81-2.45,25.24-1.3,37,4.57,2.39,1.18,4.65,2.61,6.9,4a1.79,1.79,0,0,1,.93,1.75q0,13.91,0,27.8V76.88a3.33,3.33,0,0,0,.79,2.28c4.31,5.3,8.64,10.59,12.87,16a52.77,52.77,0,0,1,10.58,25,57.45,57.45,0,0,1-3.3,30.2,64.08,64.08,0,0,1-6.12,11.17,1.43,1.43,0,0,1-1.43.61h-60a2.84,2.84,0,0,0-2,.66c-5.34,4.32-10.7,8.63-16.11,12.87a53.3,53.3,0,0,1-22.49,10.09,57.55,57.55,0,0,1-43.89-8.81,1.64,1.64,0,0,1-.81-1.35c0-.44,0-.87,0-1.31V115.64a3,3,0,0,0-.69-2.06q-6.23-7.6-12.38-15.3a53,53,0,0,1-10.9-24.7,56.15,56.15,0,0,1,4.76-34.7,83.15,83.15,0,0,1,4.32-7.41,1.67,1.67,0,0,1,1.65-.85Q816.13,30.65,831.16,30.64Zm-8.69,120.87c0,.38-.08.53-.08.67v19.2a1.39,1.39,0,0,0,.81,1.32,39.73,39.73,0,0,0,5.48,2.59,51.56,51.56,0,0,0,25.61,3.05,44.8,44.8,0,0,0,21.49-8.46c4.89-3.67,9.59-7.59,14.37-11.42q14.36-11.52,28.7-23.07a8.08,8.08,0,0,0,2.49-8.95c-2-5.5-8.56-7.19-13.23-3.41q-6.5,5.23-13,10.44-10.46,8.4-20.93,16.76c-3.14,2.49-6.08,5.27-9.51,7.37a32.36,32.36,0,0,1-24.87,3.88A33.87,33.87,0,0,1,822.47,151.51ZM938,41.09l.28-.15V39.67c0-5.89,0-11.77,0-17.66a2.23,2.23,0,0,0-1.4-2.3,51,51,0,0,0-29.56-5.42,45.26,45.26,0,0,0-22,8.2c-4.11,3-8,6.26-12,9.45Q857.74,44.5,842.09,57.11A8.19,8.19,0,1,0,852.2,70Q867,58.21,881.68,46.35c4.4-3.52,8.7-7.2,13.28-10.48,10.32-7.4,25.64-7.33,36.68-.11A35.4,35.4,0,0,1,938,41.09ZM824.91,38.84l-.72-.12H804.87a1.16,1.16,0,0,0-1.13.66,34.91,34.91,0,0,0-2.59,5.37A51.12,51.12,0,0,0,798,70.36a47.53,47.53,0,0,0,5.62,17.06c2.91,5.21,7,9.54,10.67,14.17,6.22,7.8,12.53,15.51,18.81,23.26,2.82,3.48,5.57,7,8.56,10.37a7.94,7.94,0,0,0,11.09.47,8.1,8.1,0,0,0,1-11.35q-4.66-5.73-9.3-11.47L823.07,86.33c-2.29-2.85-4.7-5.6-6.18-9a34,34,0,0,1,3-32.62,36.93,36.93,0,0,1,5.07-5.85ZM935.69,154H956c.55,0,.75-.32,1-.7a35.3,35.3,0,0,0,2.82-6,51.05,51.05,0,0,0,3-24A47.48,47.48,0,0,0,956.3,104c-2.37-4-5.5-7.39-8.38-11Q937,79.46,926,66c-2.07-2.54-4.16-5.09-6.22-7.69A8,8,0,0,0,913.21,55a8.19,8.19,0,0,0-6.28,13.32c1.67,2.12,3.39,4.21,5.09,6.31l21.55,26.72a121.24,121.24,0,0,1,7.88,10c6.23,9.69,6.73,20,2.6,30.65A32.34,32.34,0,0,1,935.69,154ZM851.85,39l-.15-.22c-2.23,0-4.46,0-6.68,0a18.93,18.93,0,0,0-2.7.41,24.86,24.86,0,0,0,6.44,49.22,26,26,0,0,0,14.58-5.83c5.11-4.1,10.16-8.29,15.34-12.32,1.47-1.14,2.36-2.21,1.73-4.14a6.52,6.52,0,0,1-.08-1.66,35.72,35.72,0,0,1,.45-7c-.4.29-.59.41-.77.55-6,4.78-12,9.61-18,14.38-2.64,2.09-5.12,4.38-8.26,5.8a16.08,16.08,0,0,1-17.07-27c3.43-2.89,7-5.65,10.47-8.47ZM841.48,96a2.39,2.39,0,0,0,.7,1.27c5.82,7.21,11.74,14.33,17.45,21.61,6.61,8.44,4.68,18.25-2.58,23.62a16,16,0,0,1-21.79-2.31c-3.45-3.83-6.53-8-9.78-12-.91-1.12-1.85-2.23-2.78-3.33-.43.36-.31.7-.31,1a60,60,0,0,0,.19,6.43,24.88,24.88,0,0,0,27,22,24.82,24.82,0,0,0,17.19-40.45c-4.57-5.7-9.2-11.36-13.79-17a1.46,1.46,0,0,0-1.46-.56A33.6,33.6,0,0,1,841.48,96Zm77.9.71c-.34-.47-.5-.73-.7-1-5.9-7.33-11.84-14.63-17.71-22-4.93-6.18-5.22-14.05-.76-20.11a16.13,16.13,0,0,1,25.06-1.27c3.09,3.29,5.74,7,8.58,10.52,1.39,1.71,2.79,3.41,4.4,5.4.12-4.61.1-8.81-1.29-12.91a24.87,24.87,0,0,0-25.38-17,23.93,23.93,0,0,0-17.43,8.86c-6,7.28-7.36,15.54-4.3,24.49,1.27,3.75,3.69,6.81,6.18,9.83,3.92,4.74,7.76,9.56,11.64,14.34a1.39,1.39,0,0,0,1.38.7,24.08,24.08,0,0,1,7-.23C917.06,96.55,918.09,96.59,919.38,96.71Zm-10.56,57.07a38.65,38.65,0,0,0,10.48-.43,24.94,24.94,0,0,0,19.23-22.63,24.31,24.31,0,0,0-8-19.86A24.71,24.71,0,0,0,899,109c-6.26,4.69-12.25,9.75-18.38,14.61-.7.55-.55,1.19-.45,1.83a36.5,36.5,0,0,1,.23,5.12c0,1.49-.3,3-.38,4.59l.61-.41c4.71-3.77,9.41-7.56,14.15-11.31,3.24-2.55,6.29-5.38,9.76-7.62,7.55-4.85,16.73-3.35,22,3.49A16.11,16.11,0,0,1,924,141.53c-3.64,3-7.3,5.89-11,8.83C911.62,151.48,910.22,152.64,908.82,153.78ZM877.7,115.61a8.23,8.23,0,0,0,.74-.46c2.6-2.1,5.17-4.23,7.79-6.29,4.18-3.27,8-7,12.93-9.28.68-.32.64-.64.2-1.17q-4.23-5.16-8.42-10.35c-2.61-3.18-5.36-6.3-7.13-10.08-.48-1-.88-1-1.63-.32-3.07,2.52-6.17,5-9.26,7.5-3.65,2.93-7.14,6.09-11.46,8.07-.67.32-.49.64-.13,1.09,1.66,2,3.33,4.05,4.94,6.11,3.76,4.81,8.14,9.16,10.86,14.73A.62.62,0,0,0,877.7,115.61Z"
    transform="translate(-12.2 -5.93)" />
</svg>